<svg width="24" height="24" viewBox="0 0 24 24" fill="none" xmlns="http://www.w3.org/2000/svg">
<g clip-path="url(#clip0_22_776)">
<path d="M8.24438 19.125C7.86938 17.625 5.99437 18 5.99437 18C5.99437 18 6.36937 16.125 4.86937 15.75L14.2444 6.375L17.2444 10.125L8.24438 19.125ZM19.4944 7.875L16.1194 4.5L17.8744 2.745C17.8744 2.745 19.1869 2.1825 20.4994 3.495C21.8119 4.8075 21.2494 6.12 21.2494 6.12L19.4944 7.875ZM3.36937 18.75L2.67825 20.4285C2.448 20.9873 3.00713 21.5464 3.56588 21.3161L5.24437 20.625L3.36937 18.75ZM20.5781 16.4531L19.4531 17.5781L18.6578 16.7828L19.7828 15.6578L18.5625 14.4375L16.4764 16.5233L15.681 15.7279L17.7671 13.6421L16.5 12.375L12.3214 17.1964L17.1803 22.0553L21.6803 17.5553L20.5781 16.4531ZM11.5796 7.45463L10.3594 6.23438L8.27325 8.3205L7.47788 7.52475L9.564 5.439L8.25 4.125L7.125 5.25L6.32963 4.45463L7.45463 3.32963L6.30525 2.18025L1.80525 6.68025L6.79725 11.6723L11.5796 7.45463Z" fill="white"/>
</g>
<defs>
<clipPath id="clip0_22_776">
<rect width="24" height="24" fill="white"/>
</clipPath>
</defs>
</svg>
