<svg width="24" height="24" viewBox="0 0 24 24" fill="none" xmlns="http://www.w3.org/2000/svg">
<g clip-path="url(#clip0_22_804)">
<path d="M12.3779 0.75L10.1279 4.875V7.125L8.25293 8.625V10.5H7.84351L7.5022 10.8413V19.9087L7.84351 20.25H8.25293V23.25H9.00293V21.9331C9.00293 21.785 9.06163 21.643 9.16626 21.5383C9.27051 21.4337 9.41255 21.375 9.5603 21.375H9.56982C9.71757 21.375 9.85924 21.4337 9.96387 21.5383C10.0685 21.643 10.1279 21.785 10.1279 21.9331V23.25H10.8779V21.9331C10.8779 21.785 10.9359 21.643 11.0405 21.5383C11.1452 21.4337 11.2876 21.375 11.4353 21.375H11.4448C11.5926 21.375 11.7342 21.4337 11.8389 21.5383C11.9435 21.643 12.0029 21.785 12.0029 21.9331V23.25H12.7529V21.9331C12.7529 21.785 12.8109 21.643 12.9155 21.5383C13.0202 21.4337 13.1626 21.375 13.3103 21.375H13.3198C13.4676 21.375 13.6092 21.4337 13.7139 21.5383C13.8185 21.643 13.8779 21.785 13.8779 21.9331V23.25H14.6279V21.9331C14.6279 21.785 14.6859 21.643 14.7905 21.5383C14.8952 21.4337 15.0376 21.375 15.1853 21.375H15.1948C15.3426 21.375 15.4842 21.4337 15.5889 21.5383C15.6935 21.643 15.7529 21.785 15.7529 21.9331V23.25H16.5029V20.25H16.9116L17.2529 19.9087V10.8413L16.9116 10.5H16.5029V8.625L14.6279 7.125V4.875L12.3779 0.75ZM11.4353 5.4375H11.4448C11.5926 5.4375 11.7342 5.4962 11.8389 5.60083C11.9435 5.70546 12.0029 5.84748 12.0029 5.99561V6.9375H10.8779V5.99561C10.8779 5.84748 10.9359 5.70546 11.0405 5.60083C11.1452 5.4962 11.2876 5.4375 11.4353 5.4375ZM13.3103 5.4375H13.3198C13.4676 5.4375 13.6092 5.4962 13.7139 5.60083C13.8185 5.70546 13.8779 5.84748 13.8779 5.99561V6.9375H12.7529V5.99561C12.7529 5.84748 12.8109 5.70546 12.9155 5.60083C13.0202 5.4962 13.1626 5.4375 13.3103 5.4375ZM9.5603 9H9.56982C9.71757 9 9.85924 9.05871 9.96387 9.16333C10.0685 9.26795 10.1279 9.40998 10.1279 9.55811V10.5H9.00293V9.55811C9.00293 9.40998 9.06163 9.26795 9.16626 9.16333C9.27088 9.05871 9.41255 9 9.5603 9ZM11.4353 9H11.4448C11.5926 9 11.7342 9.05871 11.8389 9.16333C11.9435 9.26795 12.0029 9.40998 12.0029 9.55811V10.5H10.8779V9.55811C10.8779 9.40998 10.9359 9.26795 11.0405 9.16333C11.1452 9.05871 11.2876 9 11.4353 9ZM13.3103 9H13.3198C13.4676 9 13.6092 9.05871 13.7139 9.16333C13.8185 9.26795 13.8779 9.40998 13.8779 9.55811V10.5H12.7529V9.55811C12.7529 9.40998 12.8109 9.26795 12.9155 9.16333C13.0202 9.05871 13.1626 9 13.3103 9ZM15.1853 9H15.1948C15.3426 9 15.4842 9.05871 15.5889 9.16333C15.6935 9.26795 15.7529 9.40998 15.7529 9.55811V10.5H14.6279V9.55811C14.6279 9.40998 14.6859 9.26795 14.7905 9.16333C14.8952 9.05871 15.0376 9 15.1853 9ZM12.3779 12.1875C14.1371 12.1875 15.5654 13.6159 15.5654 15.375C15.5654 17.1341 14.1371 18.5625 12.3779 18.5625C10.6184 18.5625 9.19043 17.1341 9.19043 15.375C9.19043 13.6159 10.6184 12.1875 12.3779 12.1875ZM11.6279 13.5V16.125H12.3779H13.8779V15.375H12.3779V13.5H11.6279Z" fill="white"/>
</g>
<defs>
<clipPath id="clip0_22_804">
<rect width="24" height="24" fill="white"/>
</clipPath>
</defs>
</svg>
