<svg width="24" height="24" viewBox="0 0 24 24" fill="none" xmlns="http://www.w3.org/2000/svg">
<g clip-path="url(#clip0_22_795)">
<path d="M8.92822 3.4065C4.41264 3.31653 1.14331 5.20225 0.457764 11.0698C1.791 13.8499 3.91605 14.5823 5.64697 14.6536L9.375 19.5H13.875L13.5 18.75L10.4839 18.5544L8.39282 15.9419C8.39282 15.9419 9.14379 15.5641 10.0005 14.354C10.0043 14.3541 10.0084 14.3546 10.0122 14.3547C10.241 14.051 10.4401 13.7216 10.5564 13.3916L11.2126 13.5637C11.2126 13.5637 11.1525 13.8934 10.9988 14.3584C15.57 14.2309 17.8425 12.0601 17.8425 12.0601C18.6863 12.7201 20.3811 13.2334 20.3811 13.2334L21.6372 12.9448C22.8335 6.63733 16.6238 7.19971 16.6238 7.19971C16.6238 7.19971 14.8387 3.81721 9.84741 3.44971C9.53569 3.42674 9.22926 3.41249 8.92822 3.4065ZM20.4375 10.5938C20.6963 10.5938 20.9062 10.8038 20.9062 11.0625C20.9062 11.3213 20.6963 11.5313 20.4375 11.5313C20.1787 11.5313 19.9688 11.3213 19.9688 11.0625C19.9688 10.8038 20.1787 10.5938 20.4375 10.5938ZM21.731 13.5374L20.7078 13.8413C22.2528 16.1963 23.2947 19.3872 23.2947 19.3872L23.5422 19.0649C23.051 16.7024 21.9972 14.1599 21.731 13.5374ZM1.88599 14.1416L2.25 19.5H6.75L6.375 18.75L3.375 18.5552L3.2959 15.1201C2.7934 14.8576 2.32474 14.5279 1.88599 14.1416Z" fill="white"/>
</g>
<defs>
<clipPath id="clip0_22_795">
<rect width="24" height="24" fill="white"/>
</clipPath>
</defs>
</svg>
