<svg width="24" height="24" viewBox="0 0 24 24" fill="none" xmlns="http://www.w3.org/2000/svg">
<g clip-path="url(#clip0_22_789)">
<path d="M15.7617 1.12793C13.4997 1.12793 12.75 3 12.75 4.125C12.75 4.125 13.8646 3.34508 15.0901 3.19995L15.364 3.78296C15.1798 3.82901 14.3792 4.05092 13.5454 4.65308C12.69 5.27085 11.8457 6.36567 11.688 7.9563C11.1965 7.16463 10.5208 6.56433 9.84595 6.17065C8.83844 5.58294 7.87778 5.35369 7.55347 5.28735L7.5 5.25V4.5C9.75 4.5 11.25 6 11.25 6C11.25 4.875 10.5003 2.62793 7.48828 2.62793C3.75028 2.62793 2.25 6.375 2.25 6.375C4.125 6.75 5.25 8.625 8.625 8.625C9.6695 8.625 10.2876 8.50505 10.6663 8.36206C11.0199 8.86927 11.25 9.50225 11.25 10.3125V10.5H3V12.75H21V10.5H12.75V8.4375C12.75 7.69195 12.9259 7.11163 13.1938 6.64966C13.5522 6.89894 14.199 7.125 15.375 7.125C17.625 7.125 19.125 5.625 21 5.25C21 5.25 20.2497 1.12793 15.7617 1.12793ZM4.5 13.5L5.25 21H18.75L19.4626 13.875L4.5 13.5Z" fill="white"/>
</g>
<defs>
<clipPath id="clip0_22_789">
<rect width="24" height="24" fill="white"/>
</clipPath>
</defs>
</svg>
