<svg width="24" height="24" viewBox="0 0 24 24" fill="none" xmlns="http://www.w3.org/2000/svg">
<g clip-path="url(#clip0_58_714)">
<path d="M19.98 5.16939C18.0694 3.63189 15.0469 3.37126 14.9175 3.36189C14.7169 3.34501 14.5256 3.45751 14.4431 3.64314C14.4356 3.65439 14.37 3.80626 14.2969 4.04251C15.5606 4.25626 17.1131 4.68564 18.5175 5.55751C18.7425 5.69626 18.8119 5.99251 18.6731 6.21751C18.5813 6.36564 18.4256 6.44626 18.2644 6.44626C18.1781 6.44626 18.09 6.42189 18.0113 6.37314C15.5962 4.87501 12.5813 4.80001 12 4.80001C11.4187 4.80001 8.40188 4.87501 5.98875 6.37314C5.76375 6.51376 5.4675 6.44439 5.32875 6.21939C5.18813 5.99251 5.2575 5.69814 5.4825 5.55751C6.88687 4.68751 8.43937 4.25626 9.70312 4.04439C9.63 3.80626 9.56437 3.65626 9.55875 3.64314C9.47437 3.45751 9.285 3.34126 9.0825 3.36189C8.95312 3.37126 5.93062 3.63189 3.99375 5.19001C2.98313 6.12564 0.96 11.5931 0.96 16.32C0.96 16.4044 0.9825 16.485 1.02375 16.5581C2.41875 19.0106 6.22687 19.6519 7.095 19.68C7.09875 19.68 7.10437 19.68 7.11 19.68C7.26375 19.68 7.40812 19.6069 7.49813 19.4831L8.37562 18.2756C6.0075 17.6644 4.79813 16.6256 4.72875 16.5638C4.53 16.3894 4.51125 16.0856 4.6875 15.8869C4.86187 15.6881 5.16563 15.6694 5.36438 15.8438C5.3925 15.87 7.62 17.76 12 17.76C16.3875 17.76 18.615 15.8625 18.6375 15.8438C18.8362 15.6713 19.1381 15.6881 19.3144 15.8888C19.4887 16.0875 19.47 16.3894 19.2712 16.5638C19.2019 16.6256 17.9925 17.6644 15.6244 18.2756L16.5019 19.4831C16.5919 19.6069 16.7362 19.68 16.89 19.68C16.8956 19.68 16.9012 19.68 16.905 19.68C17.7731 19.6519 21.5813 19.0106 22.9762 16.5581C23.0175 16.485 23.04 16.4044 23.04 16.32C23.04 11.5931 21.0169 6.12564 19.98 5.16939ZM8.88 14.4C7.95187 14.4 7.2 13.5413 7.2 12.48C7.2 11.4188 7.95187 10.56 8.88 10.56C9.80812 10.56 10.56 11.4188 10.56 12.48C10.56 13.5413 9.80812 14.4 8.88 14.4ZM15.12 14.4C14.1919 14.4 13.44 13.5413 13.44 12.48C13.44 11.4188 14.1919 10.56 15.12 10.56C16.0481 10.56 16.8 11.4188 16.8 12.48C16.8 13.5413 16.0481 14.4 15.12 14.4Z" fill="white"/>
</g>
<defs>
<clipPath id="clip0_58_714">
<rect width="24" height="24" fill="white"/>
</clipPath>
</defs>
</svg>
