<svg width="24" height="24" viewBox="0 0 24 24" fill="none" xmlns="http://www.w3.org/2000/svg">
<g clip-path="url(#clip0_22_792)">
<path d="M15.3867 1.50293C13.8023 1.50293 12.375 3 12.375 4.125C12.375 4.125 13.4896 3.34508 14.7151 3.19995L14.989 3.78296C14.8048 3.82901 14.0042 4.05092 13.1704 4.65308C12.4445 5.17732 11.71 6.03364 11.4045 7.25024C11.0408 6.61187 10.5575 6.1232 10.0796 5.77808C9.24583 5.17592 8.44522 4.95401 8.26099 4.90796L8.53491 4.32495C9.76041 4.47008 10.875 5.25 10.875 5.25C10.875 4.125 9.44766 2.62793 7.86328 2.62793C4.12528 2.62793 3.375 5.625 3.375 5.625C5.25 6 6 7.5 8.25 7.5C9.18545 7.5 9.77702 7.45144 10.1646 7.39014C10.5554 7.87753 10.8391 8.52924 10.8669 9.4248C10.852 9.56052 10.7228 10.4296 9.75 10.5C8.69775 10.5761 3 10.875 3 10.875V14.625C3.41438 14.625 3.75 14.9606 3.75 15.375C3.75 15.7894 3.41438 16.125 3 16.125V18.4094C3.21787 18.487 3.375 18.693 3.375 18.9375C3.375 19.182 3.21787 19.3883 3 19.4656V21H6.78442C6.86205 20.7821 7.068 20.625 7.3125 20.625C7.557 20.625 7.76333 20.7821 7.84058 21H11.625C11.625 20.5856 11.9606 20.25 12.375 20.25C12.7894 20.25 13.125 20.5856 13.125 21H17.729C17.8588 20.7769 18.0979 20.625 18.375 20.625C18.6521 20.625 18.8909 20.7769 19.021 21H21V19.125C20.5856 19.125 20.25 18.7894 20.25 18.375C20.25 17.9606 20.5856 17.625 21 17.625V10.875L13.3931 10.5L13.125 13.125H12.375V12.375V9.75V8.4375C12.375 7.46716 12.674 6.7782 13.0854 6.26514C13.473 6.32644 14.0645 6.375 15 6.375C17.25 6.375 18 4.875 19.875 4.5C19.875 4.5 19.1247 1.50293 15.3867 1.50293ZM6 12.75C6.41438 12.75 6.75 13.0856 6.75 13.5C6.75 13.9144 6.41438 14.25 6 14.25C5.58562 14.25 5.25 13.9144 5.25 13.5C5.25 13.0856 5.58562 12.75 6 12.75ZM15.9375 13.5C16.248 13.5 16.5 13.752 16.5 14.0625C16.5 14.373 16.248 14.625 15.9375 14.625C15.627 14.625 15.375 14.373 15.375 14.0625C15.375 13.752 15.627 13.5 15.9375 13.5ZM9.5625 14.25C9.873 14.25 10.125 14.502 10.125 14.8125C10.125 15.123 9.873 15.375 9.5625 15.375C9.252 15.375 9 15.123 9 14.8125C9 14.502 9.252 14.25 9.5625 14.25ZM18.9375 14.625C19.248 14.625 19.5 14.877 19.5 15.1875C19.5 15.498 19.248 15.75 18.9375 15.75C18.627 15.75 18.375 15.498 18.375 15.1875C18.375 14.877 18.627 14.625 18.9375 14.625ZM12.9375 15.75C13.248 15.75 13.5 16.002 13.5 16.3125C13.5 16.623 13.248 16.875 12.9375 16.875C12.627 16.875 12.375 16.623 12.375 16.3125C12.375 16.002 12.627 15.75 12.9375 15.75ZM6 17.25C6.207 17.25 6.375 17.418 6.375 17.625C6.375 17.832 6.207 18 6 18C5.793 18 5.625 17.832 5.625 17.625C5.625 17.418 5.793 17.25 6 17.25ZM9.1875 18C9.498 18 9.75 18.252 9.75 18.5625C9.75 18.873 9.498 19.125 9.1875 19.125C8.877 19.125 8.625 18.873 8.625 18.5625C8.625 18.252 8.877 18 9.1875 18ZM17.0625 18C17.373 18 17.625 18.252 17.625 18.5625C17.625 18.873 17.373 19.125 17.0625 19.125C16.752 19.125 16.5 18.873 16.5 18.5625C16.5 18.252 16.752 18 17.0625 18ZM13.5 18.375C13.707 18.375 13.875 18.543 13.875 18.75C13.875 18.957 13.707 19.125 13.5 19.125C13.293 19.125 13.125 18.957 13.125 18.75C13.125 18.543 13.293 18.375 13.5 18.375Z" fill="white"/>
</g>
<defs>
<clipPath id="clip0_22_792">
<rect width="24" height="24" fill="white"/>
</clipPath>
</defs>
</svg>
