<svg width="24" height="24" viewBox="0 0 24 24" fill="none" xmlns="http://www.w3.org/2000/svg">
<g clip-path="url(#clip0_22_253)">
<path d="M13.3125 1.875C12.5876 1.875 12 2.46263 12 3.1875V3.375C12 4.09987 12.5625 4.875 13.3125 4.875C14.0625 4.875 14.625 4.09987 14.625 3.375V3.1875C14.625 2.46263 14.0374 1.875 13.3125 1.875ZM12.041 6.01245C11.9466 6.00742 11.8635 6.00861 11.7964 6.01611C11.6351 6.03411 11.4808 6.0822 11.335 6.15308L8.82202 7.396C8.4639 7.573 8.19145 7.8859 8.0647 8.26465L7.12354 10.9233L6.9397 11.4023C6.9187 11.4575 6.91099 11.5167 6.91699 11.5752L6.95947 11.9824C6.9741 12.1223 7.06517 12.242 7.19604 12.293L7.65454 12.4717C7.82254 12.5369 8.01302 12.4734 8.10864 12.3208L8.37305 11.8967C8.4143 11.8307 8.43432 11.7532 8.42944 11.6755L8.39941 11.1716L8.73267 10.3154L8.73706 10.3184L9.31421 8.90259L10.7615 8.68652L9.98511 11.4001C9.82311 11.966 9.93969 12.5754 10.2993 13.0415L13.0173 16.5637L14.543 21.4863C14.5917 21.6435 14.7369 21.75 14.9011 21.75H16.5V21.2102C16.5 21.0797 16.4319 20.9584 16.3206 20.8901L15.8789 20.6191L14.8689 16.0078L12.9895 12.2666C12.9895 12.2666 13.5354 10.7527 14.0112 9.20728C14.5779 7.36753 13.9923 6.48378 13.1111 6.21753C12.7142 6.09772 12.3243 6.02753 12.041 6.01245ZM17.3547 9.0022C17.3057 8.99648 17.2559 9.00077 17.2075 9.01465L16.7563 9.14575L15.0337 9.32373L14.2324 10.9402L16.905 10.3528L17.5085 10.3455C17.6739 10.3436 17.8188 10.2335 17.8645 10.0745L17.9861 9.65552C18.0345 9.48864 17.9611 9.30998 17.8096 9.22485L17.4961 9.04834C17.452 9.02359 17.4038 9.00792 17.3547 9.0022ZM9.5354 13.24L9 15.375L4.40186 15.7288C4.23761 15.7415 4.10094 15.8601 4.06494 16.021L3.71191 17.6001L4.18652 17.7202C4.3204 17.754 4.46156 17.7109 4.55493 17.6089L4.88306 17.25H9.43945C9.6382 17.25 9.8291 17.1709 9.96973 17.0303L11.2361 15.7903L9.5354 13.24Z" fill="white"/>
</g>
<defs>
<clipPath id="clip0_22_253">
<rect width="24" height="24" fill="white"/>
</clipPath>
</defs>
</svg>
