<svg width="24" height="24" viewBox="0 0 24 24" fill="none" xmlns="http://www.w3.org/2000/svg">
<g clip-path="url(#clip0_22_801)">
<path d="M4.9585 2.25L4.82007 3.21533C4.72894 3.85283 4.22783 4.35394 3.59033 4.44507L2.625 4.5835V5.1665L3.59033 5.30493C4.22783 5.39606 4.72894 5.89717 4.82007 6.53467L4.9585 7.5H5.5415L5.67993 6.53467C5.77106 5.89717 6.27217 5.39606 6.90967 5.30493L7.875 5.1665V4.5835L6.90967 4.44507C6.27217 4.35394 5.77106 3.85283 5.67993 3.21533L5.5415 2.25H4.9585ZM11.625 2.25L11.5364 2.87036C11.4779 3.28024 11.156 3.60288 10.7461 3.66138L10.125 3.75V4.125L10.7454 4.21362C11.1552 4.27212 11.4779 4.59403 11.5364 5.00391L11.625 5.625H12L12.0886 5.00464C12.1471 4.59476 12.469 4.27212 12.8789 4.21362L13.5 4.125V3.75L12.8796 3.66138C12.4698 3.60288 12.1471 3.28097 12.0886 2.87109L12 2.25H11.625ZM18.2542 3.00146C18.1212 3.00772 18.0154 3.04859 17.9414 3.12231C17.9409 3.1228 17.9404 3.12329 17.9399 3.12378L3.06445 17.9993C2.4787 18.585 2.4787 19.5353 3.06445 20.1211L4.25391 21.3105C4.83966 21.8967 5.78925 21.8967 6.375 21.3105L21.2505 6.43506C21.251 6.43457 21.2515 6.43408 21.252 6.43359C21.4046 6.28087 21.4145 5.99525 21.28 5.62711C21.1454 5.25898 20.875 4.83201 20.5165 4.42154C20.1579 4.01107 19.7343 3.64349 19.3204 3.38367C18.9065 3.12385 18.5289 2.98849 18.2542 3.00146ZM18.3977 4.78784C18.7233 5.22829 19.1474 5.6519 19.5879 5.97656L14.3145 11.25L13.1243 10.0605L18.3977 4.78784ZM18 14.625L17.8228 15.8665C17.7058 16.6862 17.0612 17.3308 16.2415 17.4478L15 17.625V18.375L16.2415 18.5522C17.0612 18.6692 17.7058 19.3138 17.8228 20.1335L18 21.375H18.75L18.9272 20.1335C19.0442 19.3138 19.6888 18.6692 20.5085 18.5522L21.75 18.375V17.625L20.5085 17.4478C19.6888 17.3308 19.0442 16.6862 18.9272 15.8665L18.75 14.625H18Z" fill="white"/>
</g>
<defs>
<clipPath id="clip0_22_801">
<rect width="24" height="24" fill="white"/>
</clipPath>
</defs>
</svg>
