<svg width="24" height="24" viewBox="0 0 24 24" fill="none" xmlns="http://www.w3.org/2000/svg">
<g clip-path="url(#clip0_62_1460)">
<path d="M12 2.25C6.61538 2.25 2.25 6.61538 2.25 12C2.25 16.6039 5.442 20.46 9.73312 21.4823C9.51113 21.4294 9.291 21.3701 9.075 21.3026V19.0687C9.075 19.0687 8.70937 19.1906 8.22187 19.1906C6.858 19.1906 6.29137 17.9738 6.15 17.3625C6.06412 16.9901 5.83987 16.6372 5.59912 16.4216C5.3115 16.1651 5.17688 16.1644 5.175 16.0766C5.17125 15.8925 5.42175 15.9 5.54062 15.9C6.15 15.9 6.612 16.5484 6.8265 16.8836C7.35788 17.7112 7.92825 17.85 8.22187 17.85C8.5875 17.85 8.90325 17.7952 9.12075 17.6903C9.22125 16.9823 9.53625 16.3515 10.05 15.9C7.76362 15.4429 6.15 14.1315 6.15 12C6.15 10.902 6.59063 9.89288 7.32488 9.078C7.24988 8.86538 7.125 8.43525 7.125 7.73438C7.125 7.27125 7.15725 6.70275 7.36875 6.15C7.36875 6.15 8.75925 6.15975 10.0706 7.40175C10.6759 7.2255 11.3235 7.125 12 7.125C12.6765 7.125 13.3241 7.2255 13.9294 7.40175C15.2408 6.15975 16.6312 6.15 16.6312 6.15C16.8439 6.70275 16.875 7.27125 16.875 7.73438C16.875 8.49 16.7745 8.93062 16.713 9.12075C17.4248 9.92813 17.85 10.9215 17.85 12C17.85 14.1315 16.2364 15.4429 13.95 15.9C14.5605 16.4363 14.925 17.2174 14.925 18.0938V21.3026C14.709 21.3705 14.4892 21.4294 14.2669 21.4823C18.558 20.46 21.75 16.6039 21.75 12C21.75 6.61538 17.3846 2.25 12 2.25ZM12.6799 21.7238C12.4552 21.7395 12.2288 21.75 12 21.75C12.2288 21.75 12.4549 21.7391 12.6799 21.7238ZM12 21.75C11.7712 21.75 11.5448 21.7395 11.3201 21.7238C11.5451 21.7391 11.7712 21.75 12 21.75ZM11.1705 21.7125C10.7141 21.6739 10.2664 21.6041 9.83025 21.5047C10.2668 21.6038 10.7141 21.6739 11.1705 21.7125Z" fill="white"/>
</g>
<defs>
<clipPath id="clip0_62_1460">
<rect width="24" height="24" fill="white"/>
</clipPath>
</defs>
</svg>
