<svg width="24" height="24" viewBox="0 0 24 24" fill="none" xmlns="http://www.w3.org/2000/svg">
<g clip-path="url(#clip0_81_1975)">
<path d="M20.625 9.75C20.625 5.2725 16.6155 2.25 12 2.25C7.3845 2.25 3.375 5.2725 3.375 9.75C3.375 12.0154 4.5 13.125 4.5 13.125C4.5 13.125 4.107 13.9395 4.107 14.625C4.107 16.4156 5.00437 17.895 5.99025 18.1639C7.26 18.51 9 18 9 18L8.625 20.8215C8.625 20.8215 8.82112 21.0056 9.24787 21.2096L9.41738 20.3265L9.79238 20.4589L9.71137 21.3986C9.94875 21.4819 10.2281 21.5591 10.5521 21.6203L10.6552 20.625L11.2444 20.7139L11.2485 21.7162C11.4825 21.7369 11.7311 21.75 12 21.75C12.2689 21.75 12.5175 21.7369 12.7515 21.7159L12.7556 20.7135L13.3447 20.625L13.4479 21.6206C13.7719 21.5595 14.0509 21.4823 14.2886 21.399L14.2076 20.4592L14.5826 20.3269L14.7521 21.21C15.1789 21.0056 15.375 20.8215 15.375 20.8215L15 18C15 18 16.74 18.51 18.0098 18.1639C18.9956 17.895 19.893 16.4156 19.893 14.625C19.893 13.9395 19.5 13.125 19.5 13.125C19.5 13.125 20.625 12.0154 20.625 9.75ZM8.025 16.125C6.90675 16.125 6 15.2017 6 14.0625C6 12.9233 6.90675 12 8.025 12C9.14325 12 10.5 12.465 10.5 13.6042C10.5 14.7435 9.14325 16.125 8.025 16.125ZM12.5625 18.375L12 17.25L11.4375 18.375C11.4375 18.375 10.875 18.0724 10.875 17.0625C10.875 15.8573 12 15.375 12 15.375C12 15.375 13.125 15.8573 13.125 17.0625C13.125 18.0724 12.5625 18.375 12.5625 18.375ZM15.975 16.125C14.8567 16.125 13.5 14.7431 13.5 13.6042C13.5 12.4654 14.8567 12 15.975 12C17.0932 12 18 12.9233 18 14.0625C18 15.2017 17.0932 16.125 15.975 16.125Z" fill="white"/>
</g>
<defs>
<clipPath id="clip0_81_1975">
<rect width="24" height="24" fill="white"/>
</clipPath>
</defs>
</svg>
