<svg width="24" height="24" viewBox="0 0 24 24" fill="none" xmlns="http://www.w3.org/2000/svg">
<g clip-path="url(#clip0_22_250)">
<path d="M11.9956 2.24999C11.6303 2.24528 11.2803 2.45524 11.1248 2.81102L10.6626 3.86937L12.5295 4.27806L12.8423 3.56395C13.05 3.08958 12.8333 2.53684 12.3589 2.32909C12.2404 2.27706 12.1174 2.25156 11.9956 2.24999ZM10.3623 4.55638L9.30395 5.19579L4.00195 17.2104L3.69653 20.2829L3.87012 20.3481L3.75146 21.5449C3.75071 21.5509 3.75 21.5569 3.75 21.5625C3.7485 21.6446 3.79829 21.7079 3.86279 21.7361C3.93142 21.7661 4.01702 21.7563 4.07739 21.6885L4.91675 20.7429L5.09619 20.8103L6.10181 19.6772C5.61431 19.4774 5.33602 19.1764 5.21265 19.0122C4.6554 18.2693 4.80384 17.2173 5.54297 16.6567L5.54224 16.6553L8.15405 14.5356L8.93188 14.3921L12.3948 6.54711L12.0842 5.30931L10.3623 4.55638ZM12.3706 9.416L9.8562 14.2222L11.4844 13.9226L13.125 14.3906L13.0217 14.8037L11.5422 14.6228L8.39575 15.2527L5.96484 17.2829C5.58384 17.6006 5.51175 18.1612 5.8125 18.5625C5.93925 18.7316 6.3255 19.125 7.17187 19.125C7.56787 19.125 8.31551 18.873 9.39551 18.375H11.822C12.6519 19.1017 15.114 21 18.1882 21C19.5506 21 20.8483 20.4787 21.3523 20.25H23.625V13.5H22.8853C21.9541 13.5 21.0507 13.3068 20.2009 12.9258L12.3706 9.416ZM5.39209 11.3313L2.38184 13.04L0.434326 18.2329L0.43872 18.2351C0.434595 18.2463 0.426732 18.255 0.422607 18.2666C0.258732 18.7578 0.523886 19.2881 1.01514 19.4516C1.12126 19.4869 1.25164 19.5102 1.39526 19.5102C1.88201 19.5102 2.52583 19.2421 2.92895 18.2629C2.97395 18.1546 5.39209 11.3313 5.39209 11.3313ZM9.55884 19.125C8.91384 19.4175 8.44128 19.5971 8.09253 19.7021C8.35128 20.3959 8.5427 20.9211 8.55395 20.9436C8.73395 21.3523 9.23994 21.4722 9.68994 21.2922C10.1399 21.1122 10.3987 20.7409 10.2187 20.2009C10.1775 20.0809 10.0351 19.6762 9.84009 19.125H9.55884ZM10.6465 19.125C10.939 19.9275 11.1677 20.5423 11.179 20.5686C11.359 20.9773 11.8649 21.0972 12.3149 20.9172C12.6862 20.7672 12.9266 20.49 12.8928 20.0925C12.3303 19.74 11.8728 19.395 11.5503 19.125H10.6465ZM6.94189 19.8603L5.85718 21.0827C6.08255 21.3779 6.51701 21.4501 6.91113 21.2922C7.36113 21.1122 7.6236 20.7409 7.4436 20.2009C7.4286 20.1597 7.38715 20.0401 7.32715 19.8713C7.2634 19.8751 7.21093 19.875 7.16968 19.875C7.08868 19.875 7.01764 19.866 6.94189 19.8603Z" fill="white"/>
</g>
<defs>
<clipPath id="clip0_22_250">
<rect width="24" height="24" fill="white"/>
</clipPath>
</defs>
</svg>
