<svg width="24" height="24" viewBox="0 0 24 24" fill="none" xmlns="http://www.w3.org/2000/svg">
<g clip-path="url(#clip0_22_810)">
<path d="M12.1414 2.25C9.68136 2.25 6.74019 3.0015 4.75269 4.5C2.31669 6.33637 0.901406 12.7583 2.66016 16.5C3.63853 18.582 7.01395 20.9538 9.1897 21.4402C13.5266 22.4107 17.0615 20.4544 18.791 18.75C20.5891 16.9781 21.7463 16.125 21.7463 12.75C21.7463 11.625 21.0073 10.5001 21.0073 10.4626C21.0073 10.4626 19.8993 11.6249 18.0959 10.9094C18.0959 10.9094 16.5737 11.625 15.835 10.5C15.835 10.5 13.9174 10.9166 13.2488 9C13.2488 9 11.7827 8.38837 12.4153 6.5625C11.402 4.125 13.1821 2.80884 13.1821 2.80884C13.0303 2.45934 12.7162 2.25 12.1414 2.25ZM19.3125 3L18.75 3.49951V4.5H19.875C19.875 3.49987 19.3125 3 19.3125 3ZM15.4688 4.71533C15.0938 4.71533 14.625 4.80908 14.25 5.18408C14.25 5.18408 14.361 5.71921 14.625 5.93408C15 5.82046 15.375 5.93408 15.75 5.93408C16.125 5.18408 16.125 4.80908 16.125 4.80908C16.125 4.80908 15.8438 4.71533 15.4688 4.71533ZM8.625 6.1875C8.625 6.1875 9.75 7.5 9.375 8.25C8.625 8.625 7.125 8.625 7.125 8.625C7.125 8.625 7.125 6.5625 8.625 6.1875ZM17.7495 7.25024C17.0231 7.42087 16.875 8.12549 16.875 8.12549C16.875 8.12549 16.875 8.56238 18.1875 9C18.6251 8.56275 19.0624 8.56311 19.5 8.12549C19.0624 7.25061 18.6244 7.25024 17.7495 7.25024ZM6 11.625C6 11.625 7.33463 12.7057 7.125 13.125C6 13.5 4.875 13.5 4.875 13.5L4.5 12.75C5.25 11.625 6 11.625 6 11.625ZM11.5093 11.6836C11.7212 11.6949 11.9599 11.7653 12.2197 11.9121C11.8987 13.5587 10.7131 13.4985 10.7131 13.4985C10.1744 12.699 10.5911 11.6347 11.5093 11.6836ZM17.25 13.5C17.25 13.5 18 13.875 17.625 15C17.25 16.125 16.5 15.75 16.5 15.75L15.75 15C15.75 15 16.125 14.0216 17.25 13.5ZM8.63379 16.5044C9.50549 16.5478 9.75 16.8955 9.75 16.8955C9.75 16.8955 9.90813 18.132 8.72388 18.75C8.72388 18.75 7.24294 17.8224 7.53882 16.5864C7.98301 16.5092 8.34322 16.4899 8.63379 16.5044ZM13.5161 17.4778C13.8943 17.4654 14.25 17.7422 14.25 18.375C13.5 19.125 12.75 18 12.75 18C12.9141 17.6719 13.222 17.4874 13.5161 17.4778Z" fill="white"/>
</g>
<defs>
<clipPath id="clip0_22_810">
<rect width="24" height="24" fill="white"/>
</clipPath>
</defs>
</svg>
