<svg width="24" height="24" viewBox="0 0 24 24" fill="none" xmlns="http://www.w3.org/2000/svg">
<g clip-path="url(#clip0_22_786)">
<path d="M3.375 3.75C2.54662 3.75 1.875 4.42162 1.875 5.25V19.875H22.125V5.25C22.125 4.42162 21.4534 3.75 20.625 3.75H3.375ZM3.375 7.5H20.625V18.375H3.375V7.5ZM12.449 9.375L10.5081 16.5H11.8125L13.4824 9.375H12.449ZM9.75 10.5L6.00806 12.3962V13.4788L9.75 15.375V14.25L7.5 12.9426L9.75 11.625V10.5ZM14.25 10.5V11.625L16.5 12.9426L14.25 14.25V15.375L17.9919 13.4788V12.3962L14.25 10.5Z" fill="white"/>
</g>
<defs>
<clipPath id="clip0_22_786">
<rect width="24" height="24" fill="white"/>
</clipPath>
</defs>
</svg>
