<svg width="24" height="24" viewBox="0 0 24 24" fill="none" xmlns="http://www.w3.org/2000/svg">
<g clip-path="url(#clip0_22_813)">
<path d="M4.875 1.875C4.54518 1.87545 4.2247 1.9846 3.96316 2.18554C3.70162 2.38649 3.5136 2.66804 3.4282 2.98662C3.3428 3.30519 3.36479 3.64303 3.49075 3.94786C3.61671 4.25268 3.83963 4.50749 4.125 4.67285V19.6443L5.625 19.7593V4.67212C5.91001 4.5066 6.13258 4.25181 6.25829 3.94714C6.38401 3.64246 6.40587 3.30487 6.32051 2.98652C6.23516 2.66817 6.04732 2.3868 5.78604 2.1859C5.52477 1.98499 5.20459 1.87573 4.875 1.875ZM6.375 4.875L6.75 16.125H21.375L19.875 10.5L21.375 4.875H6.375ZM7.53809 6H13.5V15H7.83838L7.53809 6ZM4.125 20.625L1.875 21.75V22.5H7.875V21.75L5.625 20.625H4.125Z" fill="white"/>
</g>
<defs>
<clipPath id="clip0_22_813">
<rect width="24" height="24" fill="white"/>
</clipPath>
</defs>
</svg>
