<svg width="24" height="24" viewBox="0 0 24 24" fill="none" xmlns="http://www.w3.org/2000/svg">
<g clip-path="url(#clip0_58_708)">
<path d="M23.2245 5.78963C22.4374 6.13838 21.591 6.37087 20.6981 6.48075C21.606 5.94187 22.3042 5.08238 22.632 4.06688C21.7826 4.56488 20.8418 4.9305 19.8405 5.12325C19.041 4.27575 17.9006 3.75 16.6372 3.75C14.2102 3.75 12.2434 5.7 12.2434 8.10413C12.2434 8.44425 12.2831 8.77575 12.3581 9.0975C8.70713 8.91412 5.469 7.17863 3.30262 4.54463C2.922 5.18813 2.70787 5.94187 2.70787 6.73725C2.70787 8.24887 3.48187 9.57937 4.662 10.3635C3.94162 10.3414 3.26362 10.1411 2.67 9.81975C2.67 9.83288 2.67 9.85238 2.67 9.87075C2.67 11.9831 4.185 13.7419 6.19312 14.1424C5.826 14.2429 5.43825 14.2987 5.0385 14.2987C4.75462 14.2987 4.47825 14.2665 4.2105 14.2185C4.76962 15.9446 6.39188 17.2065 8.31375 17.2436C6.81 18.4095 4.91625 19.1077 2.85675 19.1077C2.50087 19.1077 2.15325 19.0875 1.80937 19.0459C3.7545 20.2778 6.06487 21 8.54475 21C16.6256 21 21.0461 14.364 21.0461 8.60737C21.0461 8.41875 21.0401 8.23088 21.0311 8.04525C21.894 7.43625 22.6372 6.6675 23.2245 5.78963Z" fill="white"/>
</g>
<defs>
<clipPath id="clip0_58_708">
<rect width="24" height="24" fill="white"/>
</clipPath>
</defs>
</svg>
