<svg width="24" height="24" viewBox="0 0 24 24" fill="none" xmlns="http://www.w3.org/2000/svg">
<g clip-path="url(#clip0_22_807)">
<path d="M0.59622 5.15789C0.415785 5.15789 0.251038 5.14272 0.101983 5.10479L0 6.01501C0.134019 6.07506 0.368717 6.11299 0.760968 6.11299C1.92857 6.11299 2.65031 5.14272 2.65031 4.06626V0.632095H1.63896V4.01317C1.63896 4.83932 1.25455 5.15789 0.59622 5.15789Z" fill="white"/>
<path d="M13.5812 14.5382C13.0399 14.5382 12.6006 14.9629 12.6006 15.4863C12.6006 16.0097 13.0399 16.4345 13.5812 16.4345C14.1225 16.4345 14.5618 16.0097 14.5618 15.4863C14.5618 14.9629 14.1225 14.5382 13.5812 14.5382Z" fill="white"/>
<path d="M17.1768 20.8395V18.9628H18.4843C18.6909 18.9628 18.8858 18.8687 19.0087 18.7081C19.1322 18.5482 19.1701 18.3409 19.1106 18.1493L17.1494 11.8284C17.0664 11.561 16.8114 11.3777 16.5231 11.3777H15.2156H9.33182C7.88768 11.3777 6.71681 12.5098 6.71681 13.9061L6.34547 17.1449C7.36533 17.4566 8.33419 18.2246 8.90753 19.1259L7.81641 20.0052C7.44574 19.5399 6.81879 19.1721 6.17157 18.9989L6.17027 19.0115C5.92838 18.9401 5.67603 18.8901 5.4093 18.8901C3.96516 18.8901 2.79429 20.0222 2.79429 21.4185C2.79429 22.8148 3.96516 23.9469 5.4093 23.9469H7.37056C8.8147 23.9469 9.98557 22.8148 9.98557 21.4185V15.8024C9.98557 14.0572 11.4493 12.6419 13.2543 12.6419H15.2156H16.0367L17.6057 17.6986H16.5231C16.1622 17.6986 15.8693 17.9812 15.8693 18.3307V20.385C14.7632 20.8225 13.2543 21.9413 13.2543 24H14.5618C14.5618 22.0089 16.5976 21.4741 16.682 21.4527C16.9722 21.3819 17.1768 21.1297 17.1768 20.8395Z" fill="white"/>
<path d="M17.8306 8.21723H6.71681L7.37056 10.1135H17.1768L17.8306 8.21723Z" fill="white"/>
<path d="M18.77 3.16047L21.385 6.32095L24 3.16047L21.385 0L18.77 3.16047Z" fill="white"/>
</g>
<defs>
<clipPath id="clip0_22_807">
<rect width="24" height="24" fill="white"/>
</clipPath>
</defs>
</svg>
