<svg width="24" height="24" viewBox="0 0 24 24" fill="none" xmlns="http://www.w3.org/2000/svg">
<g clip-path="url(#clip0_80_1403)">
<path d="M8.99625 3.915C8.35125 4.935 7.84125 6.28875 7.51875 7.875H9.06C9.6825 5.10375 10.8862 3.375 12 3.375C13.1138 3.375 14.3175 5.10375 14.94 7.875H16.4812C16.1588 6.28875 15.6487 4.935 15.0037 3.915C16.9612 4.6425 18.5813 6.06375 19.5712 7.875H21.2438C19.665 4.3425 16.1138 1.875 12 1.875C7.88625 1.875 4.335 4.3425 2.76 7.875H4.42875C5.41875 6.06375 7.03875 4.6425 8.99625 3.915ZM15.0037 20.085C15.6487 19.065 16.1588 17.7113 16.4812 16.125H14.94C14.3175 18.8962 13.1138 20.625 12 20.625C10.8862 20.625 9.6825 18.8962 9.06 16.125H7.51875C7.84125 17.7113 8.35125 19.065 8.99625 20.085C7.03875 19.3575 5.41875 17.9363 4.42875 16.125H2.76C4.335 19.6575 7.88625 22.125 12 22.125C16.1138 22.125 19.665 19.6575 21.2438 16.125H19.5712C18.5813 17.9363 16.9612 19.3575 15.0037 20.085ZM7.88738 9.02325H8.07825L8.03325 9.2085L6.66337 14.8616L6.63562 14.9764H6.5175H5.22637H5.10825L5.0805 14.8616L4.4295 12.1553L3.76575 14.8624L3.73762 14.9767H3.61987H2.32875H2.21025L2.18287 14.8612L0.83625 9.20813L0.792375 9.02325H0.982125H2.07675H2.1975L2.22337 9.14138L2.9985 12.693L3.78037 9.141L3.80625 9.02325H3.927H4.94287H5.06325L5.0895 9.14062L5.87812 12.6926L6.64687 9.14138L6.67237 9.02325H6.7935H7.88738ZM14.3576 9.02325H14.2365L14.211 9.14138L13.4423 12.693L12.6533 9.14062L12.627 9.02325H12.5066H11.4911H11.3707L11.3449 9.141L10.563 12.693L9.7875 9.14138L9.76162 9.02325H9.64125H8.547H8.35725L8.40112 9.20813L9.74737 14.8612L9.77475 14.9764H9.89325H11.1844H11.3021L11.3303 14.862L11.9944 12.1549L12.645 14.8612L12.6727 14.976H12.7909H14.082H14.2001L14.2279 14.8612L15.5978 9.20813L15.6428 9.02288H15.4519L14.3576 9.02325ZM23.0167 9.02325H21.9225H21.8014L21.7759 9.14138L21.0071 12.693L20.2181 9.14062L20.1919 9.02325H20.0715H19.056H18.9353L18.9094 9.141L18.1275 12.693L17.352 9.14138L17.3261 9.02325H17.2054H16.1111H15.9214L15.9653 9.20813L17.3115 14.8612L17.3389 14.9764H17.4574H18.7485H18.8663L18.8944 14.862L19.5585 12.1549L20.2091 14.8612L20.2369 14.976H20.355H21.6461H21.7642L21.792 14.8612L23.1619 9.20813L23.2069 9.02288L23.0167 9.02325Z" fill="white"/>
</g>
<defs>
<clipPath id="clip0_80_1403">
<rect width="24" height="24" fill="white"/>
</clipPath>
</defs>
</svg>
