<svg width="24" height="24" viewBox="0 0 24 24" fill="none" xmlns="http://www.w3.org/2000/svg">
<g clip-path="url(#clip0_22_798)">
<path d="M10.0232 2.65503C9.87302 2.65075 9.72255 2.65561 9.57349 2.66968C8.97349 2.73718 8.38896 2.9509 7.89771 3.2959C7.40271 3.64465 6.9941 4.11363 6.73535 4.66113C6.5966 4.93113 6.50604 5.22401 6.44604 5.52026C6.4198 5.67026 6.38974 5.81997 6.38599 5.96997V6.00366C6.86224 6.23991 7.485 6.32595 7.875 6.35595V6.19482L7.87866 6.06006C7.87866 5.97381 7.89744 5.88785 7.90869 5.79785C7.94244 5.62535 7.98741 5.45657 8.06616 5.29907C8.21241 4.97657 8.44904 4.69535 8.73779 4.48535C9.02279 4.2716 9.36747 4.1516 9.71997 4.11035C10.0762 4.0766 10.4404 4.12907 10.7666 4.26782C11.4191 4.54907 11.9213 5.18651 12 5.89526C12.105 6.60776 11.8049 7.33857 11.2537 7.78857C10.9762 8.00232 10.6503 8.16381 10.3015 8.21631C10.0015 8.26881 9.45768 8.24607 8.99268 8.25732L6.11279 8.27636C4.20404 8.28386 2.2875 8.27625 0.375 8.25L1.11035 10.0913C2.7866 10.0051 4.46227 9.93387 6.13477 9.87011L9.00732 9.78003L9.72363 9.75732C9.93738 9.74607 10.275 9.74994 10.5637 9.68994C11.1637 9.58869 11.7261 9.3077 12.1948 8.92895C13.1323 8.1602 13.6275 6.88488 13.4363 5.69238C13.275 4.48863 12.4463 3.41985 11.3401 2.9436C10.9238 2.7636 10.4737 2.66786 10.0232 2.65503ZM19.2173 4.64648C18.6491 4.65641 18.0813 4.77407 17.554 5.0061C16.7102 5.36985 15.9897 6.01131 15.5134 6.81006C15.2772 7.20756 15.1051 7.64601 14.9963 8.10351C14.9551 8.29101 14.9286 8.49023 14.9136 8.67773C15.6111 9.31148 16.901 9.3675 17.1372 9.375C17.141 8.97375 17.1298 8.78598 17.1636 8.54223C17.2086 8.31348 17.2797 8.08508 17.3884 7.87134C17.6097 7.44759 17.9662 7.08029 18.4087 6.86279C18.8399 6.63779 19.3572 6.56229 19.856 6.63354C20.351 6.71604 20.8312 6.94857 21.1912 7.31982C21.5624 7.68357 21.8022 8.17122 21.8884 8.68872C21.9709 9.20997 21.8847 9.76154 21.6372 10.2378C21.386 10.7065 20.9887 11.1149 20.5012 11.3474C20.2575 11.4674 19.9986 11.5612 19.7249 11.595C19.6611 11.61 19.5902 11.6103 19.5227 11.614C19.4515 11.6215 19.3954 11.6287 19.2979 11.625L18.769 11.6287C15.9528 11.6437 13.136 11.6815 10.3235 11.6777C7.50724 11.6777 4.69125 11.67 1.875 11.625L2.62134 13.1177C5.19009 13.0802 7.75474 13.0723 10.3235 13.0723C13.136 13.0685 15.9528 13.1063 18.769 13.1213L19.2979 13.125C19.3766 13.125 19.4924 13.1214 19.5974 13.1177C19.7062 13.1139 19.8147 13.1137 19.9197 13.095C20.3472 13.05 20.7711 12.9226 21.1611 12.7463C21.9561 12.3901 22.6165 11.7672 23.0515 11.0134C23.479 10.2522 23.6741 9.35593 23.5803 8.48217C23.4903 7.60467 23.1228 6.74642 22.519 6.08642C21.9303 5.41892 21.116 4.94264 20.231 4.74389C19.8991 4.67358 19.5582 4.64053 19.2173 4.64648ZM3.38965 14.625V14.6624L4.12134 16.4963C5.96259 16.4776 7.80401 16.4699 9.64526 16.4736L15.8774 16.5073C16.6312 16.5411 17.329 17.0851 17.554 17.8088C17.794 18.5288 17.5499 19.3835 16.9424 19.8523C16.3574 20.336 15.465 20.4115 14.8125 20.0215C14.4862 19.834 14.2163 19.5453 14.0588 19.2041C13.9726 19.0353 13.9203 18.8547 13.894 18.6672C13.8753 18.5772 13.8788 18.4797 13.8713 18.386L13.875 18.011C13.5075 18.0372 12.8737 18.1126 12.3787 18.3413V18.3977C12.3862 18.5665 12.3941 18.7315 12.4241 18.8965C12.4766 19.2302 12.5772 19.556 12.731 19.8523C13.0272 20.456 13.5113 20.9586 14.0925 21.2886C15.255 21.9673 16.8148 21.8397 17.8535 20.981C18.371 20.561 18.7615 19.9838 18.9602 19.3425C19.1515 18.7013 19.1515 18.0115 18.9565 17.3665C18.754 16.7252 18.3602 16.1516 17.8352 15.7353C17.3102 15.3153 16.6541 15.056 15.9866 15.011L9.66357 14.8425C7.57107 14.7788 5.4784 14.7075 3.38965 14.625Z" fill="white"/>
</g>
<defs>
<clipPath id="clip0_22_798">
<rect width="24" height="24" fill="white"/>
</clipPath>
</defs>
</svg>
