<svg width="24" height="24" viewBox="0 0 24 24" fill="none" xmlns="http://www.w3.org/2000/svg">
<g clip-path="url(#clip0_22_245)">
<path d="M16.3345 2.53344C16.2431 2.53152 16.1507 2.56305 16.0774 2.62792L15.8643 2.81689L15.5874 2.97362C15.4554 3.04825 15.3819 3.19459 15.3999 3.34496L15.4534 3.79027L14.625 5.99999L12.5251 7.71825L9.375 8.62499L6.70312 7.79443L4.95923 5.74657L5.03467 5.1372C5.05454 4.97482 4.96675 4.81835 4.81787 4.75048L4.54614 4.62597L4.21069 4.35058C4.06294 4.22945 3.84806 4.23905 3.71118 4.37255L3.24902 4.82299C3.12377 4.94486 3.09968 5.13736 3.19043 5.28661L3.66284 6.16552L5.58325 9.08276C5.7535 9.34151 5.99984 9.54079 6.28784 9.65404L9.17944 10.7893L9.4812 13.4985C15.4002 13.1037 20.2453 6.9655 20.291 3.0205L19.5403 3.00805C19.5122 5.45117 17.0908 8.9628 13.8201 10.9248L13.7769 9.51195L15.9207 6.91625C15.9908 6.83113 16.0412 6.73236 16.0686 6.62548L16.7029 4.14989L17.0977 3.56103C17.1989 3.41028 17.1773 3.20876 17.0464 3.08275L16.5872 2.63891C16.5167 2.57084 16.4258 2.53536 16.3345 2.53344ZM10.6875 3.74999C9.85913 3.74999 9.1875 4.35613 9.1875 5.10351V5.43749C9.1875 6.18487 9.83025 7.12499 10.6875 7.12499C11.5448 7.12499 12.1875 6.18487 12.1875 5.43749V5.10351C12.1875 4.35613 11.5159 3.74999 10.6875 3.74999ZM14.8074 12.75C13.1292 13.7569 11.6815 14.2771 9.48779 14.4316L6.84668 20.6309L6.51929 20.8872C6.42854 20.9581 6.375 21.0672 6.375 21.1824V21.75H8.03687C8.16887 21.75 8.29126 21.6805 8.35913 21.5669L11.7158 15.9419L15.4109 15.1274L16.429 19.2151C16.4706 19.3823 16.6208 19.5 16.793 19.5H18.375V18.8987C18.375 18.803 18.3384 18.7113 18.2732 18.6416L18.0198 18.3721L17.3386 13.3982C17.2876 13.0266 16.9709 12.75 16.5959 12.75H14.8074ZM12.75 16.5L13.125 22.125H13.875V16.5H12.75Z" fill="white"/>
</g>
<defs>
<clipPath id="clip0_22_245">
<rect width="24" height="24" fill="white"/>
</clipPath>
</defs>
</svg>
