<svg width="24" height="24" viewBox="0 0 24 24" fill="none" xmlns="http://www.w3.org/2000/svg">
<g clip-path="url(#clip0_22_783)">
<path d="M18.375 0.75L17.7239 1.6062C17.5371 1.8477 17.2116 1.936 16.9292 1.81787L15.936 1.40112L15.7998 2.46973C15.7612 2.77273 15.5224 3.01118 15.2197 3.0498L14.1511 3.18604L14.5679 4.1792C14.6864 4.46157 14.5977 4.78713 14.3562 4.97388L13.5 5.625L14.3562 6.27612C14.5977 6.46287 14.686 6.78843 14.5679 7.0708L14.1511 8.06396L15.2197 8.2002C15.5227 8.23882 15.7612 8.47765 15.7998 8.78027L15.936 9.84888L16.9292 9.43213C17.2116 9.31363 17.5371 9.4023 17.7239 9.6438L18.375 10.5L19.0261 9.6438C19.2129 9.4023 19.5384 9.314 19.8208 9.43213L20.814 9.84888L20.9502 8.78027C20.9888 8.47727 21.2276 8.23882 21.5303 8.2002L22.5989 8.06396L22.1821 7.0708C22.064 6.78843 22.1523 6.4625 22.3938 6.27612L23.25 5.625L22.3938 4.97388C22.1523 4.78713 22.064 4.46157 22.1821 4.1792L22.5989 3.18604L21.5303 3.0498C21.2273 3.01118 20.9888 2.77235 20.9502 2.46973L20.814 1.40112L19.8208 1.81787C19.5384 1.93637 19.2129 1.8477 19.0261 1.6062L18.375 0.75ZM18.375 3C19.8229 3 21 4.17712 21 5.625C21 7.07288 19.8229 8.25 18.375 8.25C16.9271 8.25 15.75 7.07288 15.75 5.625C15.75 4.17712 16.9271 3 18.375 3ZM7.48828 9.75C3.00028 9.75 2.25 13.8721 2.25 13.8721C4.125 14.2471 5.625 15.7471 7.875 15.7471C9.05103 15.7471 9.69783 15.521 10.0562 15.2717C10.3241 15.7337 10.5 16.314 10.5 17.0596V20.2471H10.875V20.25H3V21.75H21V20.25H12V18.9346C12 18.1243 12.2301 17.4913 12.5837 16.9841C12.9624 17.1271 13.5805 17.2471 14.625 17.2471C18 17.2471 19.125 15.3721 21 14.9971C21 14.9971 19.4997 11.25 15.7617 11.25C12.7497 11.25 12 13.4971 12 14.6221C12 14.6221 13.5 13.1221 15.75 13.1221V13.8721L15.6965 13.9094C15.3722 13.9758 14.4116 14.205 13.4041 14.7927C12.7292 15.1864 12.0535 15.7867 11.562 16.5784C11.4044 14.9876 10.56 13.893 9.70459 13.2751C8.87083 12.673 8.07022 12.4511 7.88599 12.405L8.15991 11.822C9.38541 11.9671 10.5 12.7471 10.5 12.7471C10.5 11.6221 9.75028 9.75 7.48828 9.75Z" fill="white"/>
</g>
<defs>
<clipPath id="clip0_22_783">
<rect width="24" height="24" fill="white"/>
</clipPath>
</defs>
</svg>
