<svg width="24" height="24" viewBox="0 0 24 24" fill="none" xmlns="http://www.w3.org/2000/svg">
<g clip-path="url(#clip0_39_376)">
<path d="M3 3V7.5H21V3H17.25V3.375C17.25 3.99637 16.7464 4.5 16.125 4.5C15.5036 4.5 15 3.99637 15 3.375V3H9V3.375C9 3.99637 8.49638 4.5 7.875 4.5C7.25362 4.5 6.75 3.99637 6.75 3.375V3H3ZM3 8.25V21H21V9L19.5 8.93701V16.875C19.5 17.625 17.625 17.625 17.625 17.625C17.625 17.625 17.625 19.5 16.5 19.5H4.5V8.31299L3 8.25ZM7.125 10.875V13.125H9.375V10.875H7.125ZM10.875 10.875V13.125H13.125V10.875H10.875ZM14.625 10.875V13.125H16.875V10.875H14.625ZM7.125 14.625V16.875H9.375V14.625H7.125ZM10.875 14.625V16.875H13.125V14.625H10.875ZM14.625 14.625V16.875H16.875V14.625H14.625Z" fill="white"/>
</g>
<defs>
<clipPath id="clip0_39_376">
<rect width="24" height="24" fill="white"/>
</clipPath>
</defs>
</svg>
